# xmcd
#
# Track frame offsets: 
#        150
#        12484
#        30335
#        48514
#        61600
#        79050
#        96372
#        115647
#        126447
#        143955
#        168187
#
# Disc length: 2513 seconds
#
# Revision: 4
# Processed by: cddbd v1.5.2PL0 Copyright (c) Steve Scherf et al.
# Submitted via: ExactAudioCopy v1.1
#
DISCID=8809cf0b
DTITLE=Hale, Terry Lee - Tornado Alley
DYEAR=1994
DGENRE=Singer/Songwriter
TTITLE0=Swamp walk
TTITLE1=Forget about love
TTITLE2=I remember
TTITLE3=Lucky world
TTITLE4=City life
TTITLE5=Dakota
TTITLE6=The ballad of Molly and Shelly
TTITLE7=Little toes
TTITLE8=Sam DTs
TTITLE9=Tornado alley
TTITLE10=Like Raymond Carver
EXTD=
EXTT0=
EXTT1=
EXTT2=
EXTT3=
EXTT4=
EXTT5=
EXTT6=
EXTT7=
EXTT8=
EXTT9=
EXTT10=
PLAYORDER=
